<svg xmlns="http://www.w3.org/2000/svg" viewBox="0 0 120 120">
  <defs>
    <linearGradient id="g" x1="0" y1="0" x2="0" y2="1">
      <stop offset="0%" stop-color="#F4D9B0"/>
      <stop offset="45%" stop-color="#E5B87A"/>
      <stop offset="100%" stop-color="#A6703F"/>
    </linearGradient>
  </defs>
  <!-- Warm deep-brown plate -->
  <rect width="120" height="120" rx="22" fill="#3D2B1F"/>

  <!-- Subtle inner ring for embossed luxury feel -->
  <rect x="7" y="7" width="106" height="106" rx="17"
        fill="none" stroke="url(#g)" stroke-width="0.5" opacity="0.35"/>

  <!-- HFW monogram -->
  <g fill="url(#g)">
    <!-- H left vertical with slab terminals -->
    <rect x="14" y="30" width="10" height="2.2" rx="0.5"/>
    <rect x="16.5" y="30" width="6" height="54" rx="1.4"/>
    <rect x="14" y="81.8" width="10" height="2.2" rx="0.5"/>

    <!-- H right vertical / F spine (shared stem) -->
    <rect x="38" y="30" width="10" height="2.2" rx="0.5"/>
    <rect x="40.5" y="30" width="6" height="54" rx="1.4"/>
    <rect x="38" y="81.8" width="10" height="2.2" rx="0.5"/>

    <!-- H crossbar -->
    <rect x="19.5" y="53.5" width="24" height="5" rx="1.4"/>

    <!-- F top arm extending right from shared stem -->
    <rect x="40.5" y="30" width="26" height="5" rx="1.4"/>

    <!-- F top-arm terminal serif -->
    <rect x="64.5" y="28.5" width="2.2" height="8.5" rx="0.5"/>

    <!-- F middle arm extending right from shared stem -->
    <rect x="43.5" y="53.5" width="20" height="5" rx="1.4"/>

    <!-- F middle-arm terminal serif -->
    <rect x="61.5" y="52" width="2.2" height="8.5" rx="0.5"/>

    <!-- W — four diagonal strokes forming a W -->
    <!-- W left descender -->
    <rect x="70" y="30" width="5.5" height="54" rx="1.4" transform="rotate(-8 72.75 57)"/>
    <!-- W left-center ascender -->
    <rect x="79" y="30" width="5.5" height="54" rx="1.4" transform="rotate(8 81.75 57)"/>
    <!-- W right-center descender -->
    <rect x="88" y="30" width="5.5" height="54" rx="1.4" transform="rotate(-8 90.75 57)"/>
    <!-- W right ascender -->
    <rect x="97" y="30" width="5.5" height="54" rx="1.4" transform="rotate(8 99.75 57)"/>

    <!-- W slab terminals top -->
    <rect x="67" y="29" width="8" height="2.2" rx="0.5" transform="rotate(-8 71 30.1)"/>
    <rect x="77" y="29" width="8" height="2.2" rx="0.5" transform="rotate(8 81 30.1)"/>
    <rect x="86" y="29" width="8" height="2.2" rx="0.5" transform="rotate(-8 90 30.1)"/>
    <rect x="95" y="29" width="8" height="2.2" rx="0.5" transform="rotate(8 99 30.1)"/>
  </g>

  <!-- Three-cowrie cultural accent (slightly larger) -->
  <g fill="url(#g)">
    <circle cx="40" cy="97" r="2.4"/>
    <circle cx="60" cy="97.5" r="3"/>
    <circle cx="80" cy="97" r="2.4"/>
  </g>
</svg>
