<svg xmlns="http://www.w3.org/2000/svg" viewBox="0 0 120 120">
  <defs>
    <linearGradient id="g" x1="0" y1="0" x2="0" y2="1">
      <stop offset="0%" stop-color="#F4D9B0"/>
      <stop offset="45%" stop-color="#E5B87A"/>
      <stop offset="100%" stop-color="#A6703F"/>
    </linearGradient>
  </defs>
  <!-- Warm deep-brown plate -->
  <rect width="120" height="120" rx="22" fill="#3D2B1F"/>

  <!-- Subtle inner ring -->
  <rect x="7" y="7" width="106" height="106" rx="17"
        fill="none" stroke="url(#g)" stroke-width="0.5" opacity="0.35"/>

  <!-- Interlocked HF monogram -->
  <g fill="url(#g)">
    <!-- H left vertical with slab terminals -->
    <rect x="22" y="28" width="14" height="2.5" rx="0.5"/>
    <rect x="25.5" y="28" width="7" height="64" rx="1.6"/>
    <rect x="22" y="89.5" width="14" height="2.5" rx="0.5"/>

    <!-- Shared central vertical (H right + F spine) -->
    <rect x="58" y="28" width="14" height="2.5" rx="0.5"/>
    <rect x="61.5" y="28" width="7" height="64" rx="1.6"/>
    <rect x="58" y="89.5" width="14" height="2.5" rx="0.5"/>

    <!-- H crossbar / F middle arm (one continuous bar) -->
    <rect x="29" y="58.5" width="65" height="6" rx="1.6"/>

    <!-- F top arm -->
    <rect x="61.5" y="28" width="36" height="6" rx="1.6"/>

    <!-- F arm terminal serifs -->
    <rect x="95.5" y="26" width="2.5" height="10" rx="0.5"/>
    <rect x="91.5" y="56.5" width="2.5" height="10" rx="0.5"/>
  </g>

  <!-- Three-cowrie cultural accent -->
  <g fill="url(#g)">
    <circle cx="47" cy="103" r="1.6"/>
    <circle cx="60" cy="103.5" r="2.2"/>
    <circle cx="73" cy="103" r="1.6"/>
  </g>
</svg>
